<svg xmlns="http://www.w3.org/2000/svg" width="94" height="44" viewBox="0 0 94 44">
    <g fill="none" fill-rule="evenodd">
        <path stroke="#050505" d="M36.042 17.447h4.381M45.9 17.447h4.38"/>
        <path stroke="#BCBCBC" d="M43.07 14.487l-19.541.168M43.237 33.51L43.07 4.303"/>
        <path stroke="#050505" d="M84.233 34.971h7.317c.513-1.198 1.03-4.168 1.095-5.818.005-.115-.693-.64-.689-.753.228-6.448-.406-10.472-.406-10.472l-1.643-12.59c-1.506-2.875-3.971-3.024-3.971-3.024C68.116.388 55.274 1.148 55.274 1.148c-5.828 0-19.78.344-21.982.852-4.314.996-14.262 12.447-15.32 12.969-1.319.204-10.92 3.828-12.591 4.296-1.744.489-3.147 6.04-3.43 6.763-.267.241-1.016 1.013-.947 2.04.066 1 .202 6.053.203 6.105a.407.407 0 0 0 .35.392l7.266 1.156a.815.815 0 0 0 .052.005l.319-.256"/>
        <path stroke="#BCBCBC" d="M18.002 28.963c-3.861 0-7 3.14-7 7s3.139 7 7 7c3.86 0 7-3.14 7-7s-3.14-7-7-7zM75.68 28.963c-3.861 0-7 3.14-7 7s3.139 7 7 7c3.86 0 7-3.14 7-7s-3.14-7-7-7z"/>
        <path stroke="#050505" d="M26.185 36.066H66.71"/>
    </g>
</svg>
