<?xml version="1.0" encoding="UTF-8"?>
<svg width="76px" height="31px" viewBox="0 0 76 31" version="1.1" xmlns="http://www.w3.org/2000/svg" xmlns:xlink="http://www.w3.org/1999/xlink">
    <!-- Generator: Sketch 50 (54983) - http://www.bohemiancoding.com/sketch -->
    <title>hatchback_icon</title>
    <desc>Created with Sketch.</desc>
    <defs></defs>
    <g id="Mobile" stroke="none" stroke-width="1" fill="none" fill-rule="evenodd">
        <g id="Config-Icons" transform="translate(-1087.000000, -345.000000)">
            <g id="hatchback_icon" transform="translate(1087.000000, 345.000000)">
                <path d="M39.0358,12.1627 L43.0358,12.1627" id="Stroke-1" stroke="#050505"></path>
                <path d="M55.0358,12.1627 L59.0358,12.1627" id="Stroke-3" stroke="#050505"></path>
                <path d="M68.1393,25.2086 L73.0923,23.7266 C73.1923,23.7116 73.2793,23.6616 73.3383,23.5786 L75.0153,21.2216 C75.0353,21.1926 75.0523,21.1626 75.0633,21.1286 C75.0933,21.0426 75.7813,19.0086 75.3143,17.5416 C74.9263,16.3206 74.0873,15.3066 73.8213,15.0046 L72.6913,9.8376 L69.1913,4.2256 C67.8163,1.6006 65.5653,1.4046 65.5653,1.4046 C50.4053,-0.0874 44.3213,0.7156 44.3213,0.7156 C39.0003,0.7156 33.9953,2.6096 31.9843,3.0726 C28.0453,3.9826 20.9543,8.4366 19.9883,8.9126 C18.7843,9.1006 6.0253,12.3986 4.5003,12.8266 C2.9083,13.2726 1.6273,16.3386 1.3693,16.9996 C1.1243,17.2186 0.4413,17.9236 0.5043,18.8606 C0.5643,19.7736 0.6883,24.3866 0.6893,24.4336 C0.6943,24.6146 0.8293,24.7666 1.0093,24.7926 L7.6433,25.8476 C7.6593,25.8496 7.6743,25.8516 7.6903,25.8516 L8.1023,25.8546" id="Stroke-5" stroke="#050505"></path>
                <path d="M16.59,17.6774 C13.304,17.6774 10.632,20.3494 10.632,23.6354 C10.632,26.9214 13.304,29.5934 16.59,29.5934 C19.876,29.5934 22.548,26.9214 22.548,23.6354 C22.548,20.3494 19.876,17.6774 16.59,17.6774 Z" id="Stroke-7" stroke="#BCBCBC"></path>
                <path d="M60.4884,17.6774 C57.2024,17.6774 54.5304,20.3494 54.5304,23.6354 C54.5304,26.9214 57.2024,29.5934 60.4884,29.5934 C63.7734,29.5934 66.4464,26.9214 66.4464,23.6354 C66.4464,20.3494 63.7734,17.6774 60.4884,17.6774 Z" id="Stroke-9" stroke="#BCBCBC"></path>
                <path d="M24.0358,26.1627 L52.0358,26.1627" id="Stroke-11" stroke="#050505"></path>
                <path d="M65.2945,9.6144 L27.6765,10.2254" id="Stroke-13" stroke="#BCBCBC" stroke-linecap="round"></path>
            </g>
        </g>
    </g>
</svg>