<svg xmlns="http://www.w3.org/2000/svg" width="101" height="41" viewBox="0 0 101 41">
    <g fill="none" fill-rule="evenodd" stroke-width="1.205">
        <path stroke="#050505" d="M45 15.516h4.819M70.3 15.516h4.82M89.722 32.542l8.732-1.797s1.987-.229 1.95-3.562a40.726 40.726 0 0 0-.135-2.95c-.01-.131-.998-.26-1.01-.386-.303-3.227-.902-4.886-.902-4.886l-1.363-6.263-2.132-4.303C92 3.749 90.819 2.476 90.819 2.476 71.215.344 60.704 1.15 60.704 1.15c-6.412 0-12.12.364-14.542.925-4.746 1.103-18.1 10.13-19.263 10.709-1.452.227-19.242 3.02-21.08 3.538-1.919.54-3.461 4.257-3.772 5.058-.295.266-1.118 1.12-1.042 2.256.072 1.107.222 7.91.223 7.967.006.22.168.404.385.435l7.993 1.28c.02.002.037.004.057.004l.496.004"/>
        <path stroke="#BCBCBC" d="M20.002 25.86c-3.86 0-7 3.139-7 7 0 3.86 3.14 7 7 7s7-3.14 7-7c0-3.861-3.14-7-7-7zM78.81 26.232c-3.86 0-7 3.14-7 7s3.14 7 7 7 7-3.14 7-7-3.14-7-7-7z"/>
        <path stroke="#050505" d="M30.541 32.486h36.145"/>
        <path stroke="#BCBCBC" d="M89.702 12.427l-55.597.741c-.11.003-.148-.145-.051-.197"/>
    </g>
</svg>
