<svg xmlns="http://www.w3.org/2000/svg" width="99" height="36" viewBox="0 0 99 36">
    <g fill="none" fill-rule="evenodd">
        <path stroke="#050505" stroke-width="1.205" d="M41.687 15.444h4.819"/>
        <path stroke="#BCBCBC" stroke-width="1.205" d="M54.25 12l-24.255.44"/>
        <path stroke="#050505" stroke-width="1.205" d="M25 29h40.964"/>
        <path stroke="#BCBCBC" stroke-width="1.163" d="M13.928 21C10.108 21 7 24.15 7 28.022c0 3.873 3.108 7.022 6.928 7.022s6.928-3.15 6.928-7.022c0-3.873-3.108-7.022-6.928-7.022zM76.837 21c-3.82 0-6.927 3.15-6.927 7.022 0 3.873 3.108 7.022 6.927 7.022 3.821 0 6.928-3.15 6.928-7.022 0-3.873-3.107-7.022-6.928-7.022z"/>
        <path stroke="#000" stroke-linecap="round" stroke-linejoin="bevel" stroke-width="1.1" d="M5.053 28.629l-4.5-1.541s.415-7.784 1.3-9.604c.886-1.82 4.309-4.577 5.061-4.89.752-.314 16.897-.979 16.897-.979L40.973 1.71s17.53-1.476 18.03 0 .5 9.271.5 9.271 36.516-1.613 37.756 0c1.24 1.614.903 12.477 0 13.837-.903 1.361-10.007 1.238-10.007 1.238"/>
    </g>
</svg>
