<svg xmlns="http://www.w3.org/2000/svg" width="101" height="34" viewBox="0 0 101 34">
    <g fill="none" fill-rule="evenodd" stroke-width="1.163">
        <path stroke="#050505" d="M43.842 12.613h4.651M68.26 12.613h4.652M86.627 27.988L97.6 26.241a.424.424 0 0 0 .287-.174l1.948-2.778a.39.39 0 0 0 .056-.11c.035-.1.836-2.498.293-4.227-.452-1.439-1.427-2.634-1.736-2.99l-.92-6.235a.435.435 0 0 0-.366-.37l-8.03-1.162c-.974-.431-11.883-5.232-17.359-6.37C69.288 1.308 64.37 1 58.621 1c-6.187 0-11.697.354-14.035.9-4.58 1.072-17.467 7.493-18.59 8.055-1.4.22-18.572 2.936-20.345 3.44-1.851.526-3.34 4.14-3.64 4.918-.285.258-1.078 1.09-1.006 2.194.07 1.076.215 6.512.216 6.568a.437.437 0 0 0 .37.423l7.716 1.243c.019.003.036.005.053.005l.48.003"/>
        <path stroke="#BCBCBC" d="M18.547 19.112c-3.82 0-6.928 3.15-6.928 7.022 0 3.873 3.108 7.022 6.928 7.022s6.927-3.15 6.927-7.022c0-3.873-3.108-7.022-6.927-7.022zM77.456 19.112c-3.82 0-6.928 3.15-6.928 7.022 0 3.873 3.108 7.022 6.928 7.022 3.821 0 6.928-3.15 6.928-7.022 0-3.873-3.107-7.022-6.928-7.022z"/>
        <path stroke="#050505" d="M27.563 29.113H68.26"/>
        <path stroke="#BCBCBC" d="M78.271 9.929c.093.049.06.192-.045.193l-45.626.72c-.105.002-.143-.142-.05-.193"/>
    </g>
</svg>
