<svg xmlns="http://www.w3.org/2000/svg" width="101" height="33" viewBox="0 0 101 33">
    <g fill="none" fill-rule="evenodd" stroke-width="1.205">
        <path stroke="#050505" d="M60.036 11.73h4.82M88.518 27.11l8.96-1.767a.44.44 0 0 0 .298-.176l2.02-2.81a.463.463 0 0 0 .057-.111c.036-.103.342-2.158.08-4.282-.19-1.516-.167-1.519-.372-3.02l-.951-6.307a.448.448 0 0 0-.381-.375l-6.56-.657M46.77 1L31.72 8.867c-1.452.223-24.061 2.97-25.9 3.48-1.918.532-3.46 4.188-3.772 4.976-.295.26-1.117 1.101-1.042 2.219.073 1.088.223 6.588.224 6.644a.447.447 0 0 0 .384.428l7.994 1.258c.02.003.038.005.057.005l.496.004"/>
        <path stroke="#BCBCBC" d="M19.022 17.692c-3.958 0-7.179 3.186-7.179 7.104s3.22 7.104 7.179 7.104 7.178-3.186 7.178-7.104-3.22-7.104-7.178-7.104zM79.263 17.692c-3.96 0-7.179 3.186-7.179 7.104s3.22 7.104 7.179 7.104c3.957 0 7.178-3.186 7.178-7.104s-3.22-7.104-7.178-7.104z"/>
        <path stroke="#050505" d="M28.71 28.423h40.965M92.107 6.962L39.554 9.12"/>
    </g>
</svg>
